<?xml version="1.0" encoding="UTF-8" standalone="no"?>
<!-- Created with Inkscape (http://www.inkscape.org/) -->

<svg
   width="136.32028mm"
   height="138.41212mm"
   viewBox="0 0 136.32028 138.41212"
   version="1.1"
   id="svg1"
   xml:space="preserve"
   xmlns:inkscape="http://www.inkscape.org/namespaces/inkscape"
   xmlns:sodipodi="http://sodipodi.sourceforge.net/DTD/sodipodi-0.dtd"
   xmlns="http://www.w3.org/2000/svg"
   xmlns:svg="http://www.w3.org/2000/svg"><sodipodi:namedview
     id="namedview1"
     pagecolor="#ffffff"
     bordercolor="#000000"
     borderopacity="0.25"
     inkscape:showpageshadow="2"
     inkscape:pageopacity="0.0"
     inkscape:pagecheckerboard="0"
     inkscape:deskcolor="#d1d1d1"
     inkscape:document-units="mm" /><defs
     id="defs1" /><g
     inkscape:label="Layer 1"
     inkscape:groupmode="layer"
     id="layer1"
     transform="translate(-6.0332886,-149.40292)"><path
       style="fill:#000000"
       d="m 73.274241,287.73414 c -1.11304,-0.3665 -1.83822,-0.97192 -2.3541,-1.96532 -0.23802,-0.45835 -0.30429,-0.79537 -0.30664,-1.55928 -0.003,-0.83965 0.0501,-1.07047 0.38083,-1.66748 0.71668,-1.29389 1.73397,-1.89984 3.18949,-1.89984 1.04695,0 1.62837,0.21627 2.45789,0.91427 1.11739,0.94021 1.47465,2.93268 0.76696,4.2773 -0.40766,0.77456 -0.87566,1.23284 -1.66175,1.62722 -0.62459,0.31335 -1.91698,0.45611 -2.47268,0.27313 z m -0.14012,-8.62783 c -0.90539,-0.61015 -0.95555,-0.75963 -2.34294,-6.98118 -0.35858,-1.60801 -0.70075,-2.97322 -0.76038,-3.0338 -0.0596,-0.0606 -0.835257,-0.19027 -1.723608,-0.28818 -10.272068,-1.13212 -20.540737,-6.03509 -28.285061,-13.50523 -8.458798,-8.15932 -13.75146,-19.00577 -15.090589,-30.9257 -0.08029,-0.71467 -0.196029,-1.35127 -0.2572,-1.41467 -0.06117,-0.0634 -1.802491,-0.4507 -3.8696,-0.86066 -5.096036,-1.01068 -5.462458,-1.14716 -6.021411,-2.24279 -0.581711,-1.14025 -0.04597,-2.44734 1.238486,-3.02165 0.364979,-0.16319 2.037713,-0.59701 3.717186,-0.96405 5.659921,-1.23694 4.945917,-0.77836 5.271575,-3.38568 0.906144,-7.25486 2.92683,-13.41095 6.397756,-19.49099 2.19587,-3.84651 4.560148,-6.89813 8.005871,-10.33334 5.232699,-5.21672 10.431614,-8.64517 17.119841,-11.28975 3.59264,-1.42056 7.801038,-2.4805 11.432755,-2.8795 2.644009,-0.29047 2.466849,-0.20063 2.674049,-1.35605 0.84612,-4.71831 1.52062,-7.84148 1.77505,-8.21902 0.87831,-1.30333 2.5849,-1.3397 3.42319,-0.073 0.33046,0.49936 0.37153,0.68623 1.87237,8.51997 0.0856,0.44667 0.20173,0.81213 0.25811,0.81213 0.0564,0 1.01721,0.11744 2.13519,0.26099 11.20693,1.43896 21.063559,6.37325 29.109999,14.57264 4.0856,4.16327 6.92374,8.22127 9.48256,13.55823 2.44574,5.10113 4.17755,11.39065 4.67304,16.97143 0.0483,0.54385 0.12676,1.05185 0.17437,1.1289 0.0476,0.077 1.74686,0.49942 3.77609,0.93863 4.58676,0.99274 5.16133,1.16621 5.68102,1.71515 0.55978,0.59129 0.69445,0.90029 0.69445,1.59346 0,1.20473 -0.73207,1.96622 -2.28955,2.38159 -0.56316,0.15019 -2.4565,0.54345 -4.20744,0.87392 -1.75094,0.33047 -3.30664,0.64948 -3.45711,0.70892 -0.2383,0.0941 -0.28555,0.25613 -0.36645,1.2564 -0.2331,2.88195 -1.18209,7.3512 -2.28643,10.7679 -4.00603,12.39421 -13.18294,23.07564 -24.894559,28.97592 -5.02157,2.52985 -10.65059,4.27183 -15.70885,4.86134 -2.46708,0.28752 -2.07983,-0.28249 -3.09524,4.55595 -0.48744,2.32267 -0.97679,4.43804 -1.08745,4.70081 -0.53566,1.27205 -2.11068,1.82417 -3.16909,1.11091 z m 0.91976,-25.99792 v -16.80776 l -1.16735,-0.0829 c -1.4411,-0.10229 -2.83613,-0.3844 -4.249532,-0.85935 -0.594063,-0.19963 -1.080114,-0.31827 -1.080114,-0.26365 0,0.11636 0.597125,3.40046 2.657476,14.61573 1.997,10.87041 2.01264,10.95519 2.14544,11.62962 0.0633,0.3216 0.17875,0.93557 0.25649,1.36437 0.0777,0.4288 0.40377,2.181 0.7245,3.89377 0.32073,1.71278 0.58315,3.15998 0.58315,3.21602 0,0.056 0.0292,0.10187 0.065,0.10187 0.0357,0 0.065,-7.56349 0.065,-16.80776 z m -4.807777,11.23207 c 0,-0.25444 -1.096839,-6.44681 -2.591372,-14.62996 -2.086628,-11.42511 -2.416287,-13.17222 -2.501524,-13.25745 -0.03973,-0.0397 -1.614459,0.97225 -3.499393,2.24886 -9.58451,6.4913 -14.321865,9.67017 -14.599807,9.79681 -0.678047,0.30894 -1.366544,-0.15661 -1.366544,-0.92404 0,-0.41714 0.362953,-1.06062 2.358422,-4.18128 1.297133,-2.02855 2.954652,-4.62384 3.683377,-5.76731 0.728725,-1.14347 2.298718,-3.5954 3.488873,-5.44873 1.951713,-3.03925 2.272486,-3.58209 2.116684,-3.58209 -0.02598,0 -0.362199,-0.061 -0.747155,-0.13558 -1.084339,-0.21004 -6.194856,-1.1349 -7.066974,-1.27892 -0.667445,-0.11023 -4.586113,-0.82858 -11.759561,-2.15571 -0.964803,-0.17849 -2.923647,-0.53128 -4.352986,-0.78398 -1.429339,-0.25269 -2.710155,-0.49417 -2.846258,-0.53661 -0.232725,-0.0726 -0.242302,-0.0217 -0.160842,0.8548 0.185468,1.99557 1.253424,6.75967 2.011612,8.97371 1.915389,5.59327 4.650021,10.50569 8.299786,14.90952 1.441243,1.73902 4.720521,4.92237 6.681403,6.48597 6.130653,4.88854 13.147678,7.95994 21.42292,9.37696 0.966319,0.16546 1.429339,0.17681 1.429339,0.035 z m 11.564647,-0.0785 c 7.62611,-1.20908 15.10835,-4.51411 21.050269,-9.29827 5.45122,-4.38908 9.48229,-9.33982 12.47695,-15.32349 1.42452,-2.84636 2.72776,-6.36299 3.49123,-9.42065 0.52388,-2.09809 1.24367,-6.23015 1.12011,-6.43009 -0.031,-0.0502 -0.95034,0.0706 -2.04289,0.26846 -4.9702,0.90017 -14.80267,2.67704 -19.630249,3.54747 -2.91473,0.52554 -5.33527,0.99128 -5.37897,1.03498 -0.0437,0.0437 0.274,0.62156 0.70602,1.28411 0.43201,0.66256 2.58124,4.01135 4.77607,7.44177 2.19482,3.43041 4.483879,7.00596 5.086799,7.94567 1.27506,1.9873 1.41567,2.45466 0.89514,2.97519 -0.28662,0.28662 -0.43012,0.33682 -0.79405,0.27776 -0.29092,-0.0472 -2.06993,-1.17011 -5.155559,-3.25414 -2.59125,-1.75013 -5.86532,-3.96124 -7.2757,-4.91357 -1.41038,-0.95233 -3.30893,-2.24205 -4.21899,-2.86604 -0.91007,-0.62399 -1.69357,-1.09178 -1.74112,-1.03952 -0.0476,0.0522 -0.17946,0.62127 -0.29314,1.26447 -0.11367,0.6432 -0.52668,2.95288 -0.91779,5.13262 -0.39112,2.17975 -0.97613,5.45423 -1.30002,7.27664 -0.32388,1.8224 -0.67907,3.81048 -0.78931,4.41795 -0.11023,0.60747 -0.52072,2.91715 -0.9122,5.13263 -0.39147,2.21547 -0.74568,4.18894 -0.78712,4.38547 -0.0909,0.43092 -0.0784,0.43215 1.63452,0.16058 z m -4.76769,-32.5582 c 5.02972,-0.75377 9.16735,-4.44458 10.69547,-9.54048 0.31822,-1.06118 0.35178,-1.37398 0.3625,-3.37844 0.0143,-2.6722 -0.19974,-3.64517 -1.28679,-5.84979 -1.68196,-3.41117 -4.50368,-5.79026 -8.18701,-6.90277 -1.0759,-0.32496 -1.35139,-0.35365 -3.44341,-0.35867 -2.56342,-0.006 -3.21013,0.10881 -5.122981,0.91062 -3.285507,1.3772 -5.756021,3.92839 -7.148168,7.38161 -0.641084,1.59021 -0.88465,2.85963 -0.899697,4.68906 -0.02784,3.38519 1.220976,6.48738 3.631103,9.02001 3.066047,3.22189 7.150583,4.66553 11.398983,4.02885 z M 56.688784,217.53877 c 0.103658,-1.58174 0.440625,-3.18262 0.980092,-4.65626 0.220373,-0.60199 0.371537,-1.12366 0.335921,-1.15928 -0.03562,-0.0356 -1.248544,0.18109 -2.695394,0.48158 -1.44685,0.30048 -8.945714,1.80896 -16.664144,3.35218 -7.71843,1.54322 -14.325874,2.86494 -14.683208,2.93716 -0.357335,0.0722 -0.705249,0.18177 -0.773143,0.24346 -0.06931,0.063 7.229526,0.11216 16.645259,0.11216 h 16.768702 z m 68.360006,1.19344 c -0.0679,-0.0647 -0.70817,-0.23328 -1.42284,-0.3747 -5.69043,-1.12602 -28.017489,-5.60166 -30.372679,-6.08845 -1.62545,-0.33596 -2.98365,-0.58255 -3.01822,-0.54798 -0.0346,0.0346 0.13834,0.64402 0.38426,1.35432 0.47019,1.35809 0.77364,2.91351 0.91737,4.70237 l 0.0861,1.072 h 16.774709 c 10.01055,0 16.72494,-0.0474 16.65127,-0.11756 z m -6.24174,-6.35511 c -1.4088,-10.66581 -6.56597,-20.6639 -14.3445,-27.80939 -6.430689,-5.90734 -13.981649,-9.75572 -22.335639,-11.38346 -2.31509,-0.45109 -3.39519,-0.55112 -3.39519,-0.31446 0,0.10151 0.43743,2.46312 0.97207,5.24803 1.11312,5.79821 0.95299,4.97371 2.13168,10.97572 0.49824,2.53707 1.21049,6.19163 1.58278,8.12124 0.37229,1.92961 0.69422,3.52891 0.7154,3.554 0.0212,0.0251 1.40183,-0.87649 3.06812,-2.00352 1.6663,-1.12703 4.6084,-3.11341 6.538,-4.41417 1.92961,-1.30077 4.64808,-3.13547 6.04104,-4.07712 2.307239,-1.55968 2.577879,-1.70865 3.040599,-1.67365 0.37897,0.0287 0.57646,0.13056 0.7778,0.40127 0.25559,0.34364 0.25932,0.39177 0.0706,0.90958 -0.10958,0.3007 -0.90219,1.62849 -1.76135,2.95062 -0.85916,1.32214 -2.516599,3.89495 -3.683199,5.71736 -1.16661,1.82241 -2.62964,4.10285 -3.25118,5.06766 -2.81543,4.37031 -3.01784,4.70934 -2.86717,4.80247 0.18035,0.11146 0.57428,0.19295 10.728629,2.21948 4.35948,0.87004 9.73899,1.94641 11.95447,2.39194 2.21547,0.44553 4.06545,0.77549 4.11107,0.73325 0.0456,-0.0422 0.003,-0.67983 -0.0941,-1.41685 z m -75.743153,-1.22773 c 7.218536,-1.4464 13.139112,-2.68829 13.156836,-2.75976 0.03149,-0.12697 -2.420178,-3.99991 -7.567475,-11.95447 -1.43691,-2.22058 -3.421765,-5.35537 -3.750693,-5.92368 -0.613066,-1.05923 -0.363358,-1.93768 0.550799,-1.93768 0.43296,0 1.568246,0.72602 9.562884,6.1155 5.656113,3.813 9.105037,6.0614 9.16041,5.9718 0.04885,-0.079 0.159143,-0.53594 0.245105,-1.01536 0.08596,-0.47941 0.443107,-2.33348 0.793657,-4.12016 0.35055,-1.78667 0.935535,-4.79803 1.299967,-6.6919 0.364432,-1.89387 0.891274,-4.61287 1.170759,-6.0422 0.279485,-1.42934 0.805551,-4.17757 1.169034,-6.10718 0.363483,-1.92961 0.694571,-3.61947 0.735751,-3.75525 0.0702,-0.23148 0.0193,-0.24135 -0.817164,-0.15831 -4.419463,0.43872 -10.229773,2.24355 -14.694412,4.56446 -11.793341,6.1307 -20.355953,16.86764 -23.551432,29.53192 -0.459256,1.82012 -1.010593,4.7621 -1.126848,6.01296 -0.08258,0.8885 -0.07916,0.90204 0.227187,0.90059 0.171063,-8.1e-4 6.217099,-1.18488 13.435635,-2.63128 z m 25.131608,-8.92754 c 1.114426,-0.43926 2.647296,-0.77526 4.282916,-0.93879 l 1.57546,-0.15752 v -16.3722 c 0,-9.05663 -0.0496,-16.31704 -0.11095,-16.24876 -0.061,0.0679 -0.20353,0.67894 -0.31669,1.35788 -0.31282,1.87701 -1.74377,9.44721 -3.0825,16.30745 -0.20919,1.072 -0.70656,3.64481 -1.10527,5.71735 -0.398705,2.07255 -0.979278,5.0839 -1.290161,6.69191 -0.706619,3.6549 -0.748253,3.8982 -0.667093,3.8982 0.03633,0 0.357756,-0.11498 0.714288,-0.25552 z m -59.5013916,20.6723 c -1.113041,-0.3665 -1.838223,-0.97191 -2.354095,-1.96532 -0.23802,-0.45835 -0.304296,-0.79536 -0.306641,-1.55928 -0.0026,-0.83965 0.05014,-1.07047 0.380824,-1.66748 0.716687,-1.29389 1.733969,-1.89984 3.189491,-1.89984 1.0469546,0 1.6283686,0.21627 2.4578956,0.91427 1.117383,0.94022 1.47465,2.93268 0.766959,4.2773 -0.407659,0.77456 -0.875666,1.23284 -1.661754,1.62722 -0.62459,0.31335 -1.9169766,0.45611 -2.4726796,0.27313 z M 137.85437,222.50431 c -1.11304,-0.36649 -1.83823,-0.97191 -2.3541,-1.96532 -0.23802,-0.45835 -0.30429,-0.79536 -0.30664,-1.55928 -0.003,-0.83964 0.0501,-1.07047 0.38083,-1.66748 0.71668,-1.29389 1.73396,-1.89984 3.18949,-1.89984 1.04695,0 1.62836,0.21627 2.45789,0.91427 1.11739,0.94022 1.47465,2.93268 0.76696,4.2773 -0.40766,0.77456 -0.87567,1.23284 -1.66175,1.62722 -0.62459,0.31335 -1.91698,0.45611 -2.47268,0.27313 z M 73.274241,156.49485 c -1.11304,-0.3665 -1.83822,-0.97192 -2.3541,-1.96532 -0.44869,-0.86404 -0.4313,-2.29029 0.0388,-3.18353 0.69076,-1.31245 1.73739,-1.94307 3.22486,-1.94307 1.48747,0 2.53409,0.63062 3.22485,1.94307 0.28116,0.5342 0.34195,0.82296 0.34195,1.62425 0,1.50842 -0.65814,2.5764 -2.0037,3.25147 -0.62459,0.31335 -1.91698,0.45611 -2.47268,0.27313 z"
       id="path1"
       inkscape:export-filename="Navigator.svg"
       inkscape:export-xdpi="96"
       inkscape:export-ydpi="96" /></g></svg>
